<svg xmlns="http://www.w3.org/2000/svg" xmlns:xlink="http://www.w3.org/1999/xlink" width="152.033" height="45" viewBox="0 0 152.033 45"><defs><clipPath id="a"><path d="M0-4H152.033V-49H0Z" transform="translate(0 49)" fill="#fff"/></clipPath></defs><g transform="translate(-80 -381)"><g transform="translate(80 430)"><g transform="translate(145.852 -42.652)"><path d="M-.2,0-.331.421h-.824V3.082h-.489V.421h-.873V0Z" transform="translate(2.517)" fill="#fff"/></g><g transform="translate(0 -49)" clip-path="url(#a)"><g transform="translate(149.074 6.331)"><path d="M-.263-.273H-.728V-2.558a2.064,2.064,0,0,1-.178.312l-.684,1.1h-.251L-2.579-2.26c-.039-.056-.1-.156-.183-.3a3.168,3.168,0,0,1,.014.317V-.273h-.474V-3.347h.46l.868,1.305a3.452,3.452,0,0,1,.184.309h0a3.221,3.221,0,0,1,.174-.316l.81-1.3h.459Z" transform="translate(3.222 3.347)" fill="#fff"/></g><g transform="translate(53.704 27.548)"><path d="M-1.192-.976A6.38,6.38,0,0,1-2.8,3.64,6.9,6.9,0,0,1-8,5.492a6.779,6.779,0,0,1-4.96-1.63A6.612,6.612,0,0,1-14.606-1.03V-11.96h2.652v10.8A4.5,4.5,0,0,0-10.908,2.01,3.822,3.822,0,0,0-7.95,3.144q4.079,0,4.08-4.148V-11.96h2.677Z" transform="translate(14.606 11.96)" fill="#fff"/></g></g><g transform="translate(82.117 -21.498)"><path d="M-1.031,0-5.278,6.57-9.372,0h-3.063L-7.1,8.423l-5.932,8.813h3.01l4.51-6.794,4.234,6.794H1.8L-3.671,8.58,1.955,0Z" transform="translate(13.028)" fill="#fff"/></g><g transform="translate(109.778 -21.498)"><path d="M0,0V17.236H9.025V14.882H2.683V9.6H8.156V7.245H2.683V2.354H8.156L9,0Z" fill="#fff"/></g><g transform="translate(27.985 -21.537)"><path d="M0,0V17.236H8.822V14.882H2.659V0Z" fill="#fff"/></g><g transform="translate(0 -48.845)"><path d="M0,0V2.355H4.884V17.236H7.619V2.355h4.607L12.963,0Z" fill="#fff"/></g><g transform="translate(28.122 -48.845)"><path d="M0,0V17.236H9.025V14.882H2.684V9.6H8.156V7.246H2.684V2.355H8.156L9,0Z" fill="#fff"/></g><g transform="translate(0 -49)" clip-path="url(#a)"><g transform="translate(52.913 0.155)"><path d="M-1.31-1.528H-3.783l-7.94-10.557A23.907,23.907,0,0,1-13.4-14.571V-1.528h-2.651v-17.19H-13.4L-5.747-8.543A26.171,26.171,0,0,1-3.988-5.963V-18.718H-1.31Z" transform="translate(16.049 18.718)" fill="#fff"/></g><g transform="translate(81.728 0)"><path d="M-1.2-1.43A9.937,9.937,0,0,1-6.431.083a7.942,7.942,0,0,1-6.12-2.477,8.808,8.808,0,0,1-2.193-6.182,8.861,8.861,0,0,1,2.461-6.38,8.475,8.475,0,0,1,6.412-2.568,8.653,8.653,0,0,1,4.336.963l-.051,2.609A7.853,7.853,0,0,0-5.845-15.2a5.616,5.616,0,0,0-4.462,1.9,6.668,6.668,0,0,0-1.53,4.514,6.822,6.822,0,0,0,1.569,4.629A5.32,5.32,0,0,0-6.023-2.343a8.274,8.274,0,0,0,4.055-1.12Z" transform="translate(14.744 17.523)" fill="#fff"/></g></g><g transform="translate(109.072 -48.845)"><path d="M0,0V17.236H9.025V14.882H2.684V9.6H8.156V7.246H2.684V2.355H8.156L9,0Z" fill="#fff"/></g><g transform="translate(133.827 -48.845)"><path d="M0,0V17.236H8.821V14.882H2.659V0Z" fill="#fff"/></g></g></g></svg>