<svg xmlns="http://www.w3.org/2000/svg" width="25.052" height="25.052" viewBox="0 0 25.052 25.052">
                                <g transform="translate(-1001.009 -223.907)">
                                    <g transform="translate(1001.009 223.907)">
                                        <path d="M1027.46,230.224a1.469,1.469,0,1,0,1.469,1.469A1.469,1.469,0,0,0,1027.46,230.224Z" transform="translate(-1008.302 -225.751)" fill="#fff"/>
                                        <path d="M1016.3,232.884a6.17,6.17,0,1,0,6.169,6.17A6.177,6.177,0,0,0,1016.3,232.884Zm0,10.122a3.952,3.952,0,1,1,3.952-3.952A3.957,3.957,0,0,1,1016.3,243.006Z" transform="translate(-1003.672 -226.528)" fill="#fff"/>
                                        <path d="M1018.536,248.959h-10a7.533,7.533,0,0,1-7.525-7.525v-10a7.533,7.533,0,0,1,7.525-7.525h10a7.534,7.534,0,0,1,7.525,7.525v10A7.534,7.534,0,0,1,1018.536,248.959Zm-10-22.7a5.174,5.174,0,0,0-5.168,5.167v10a5.174,5.174,0,0,0,5.168,5.168h10a5.174,5.174,0,0,0,5.168-5.168v-10a5.174,5.174,0,0,0-5.168-5.167Z" transform="translate(-1001.009 -223.907)" fill="#fff"/>
                                    </g>
                                </g>
                            </svg>