<svg xmlns="http://www.w3.org/2000/svg" xmlns:xlink="http://www.w3.org/1999/xlink" width="28" height="28.203" viewBox="0 0 28 28.203"><defs><clipPath id="a"><rect width="28" height="28.203" fill="none"/></clipPath></defs><g transform="translate(0 0)"><g transform="translate(0 0)" clip-path="url(#a)"><path d="M.909,5.477H11.7a4.7,4.7,0,0,0,9.266,0h6.128a.909.909,0,0,0,0-1.819H20.911a4.7,4.7,0,0,0-9.163,0H.909a.909.909,0,1,0,0,1.819M16.33,1.137A3.565,3.565,0,1,1,12.765,4.7,3.57,3.57,0,0,1,16.33,1.137" transform="translate(0 0)" fill="#161615"/><path d="M27.091,86.314H25.435a4.7,4.7,0,0,0-9.15,0H.909a.909.909,0,0,0,0,1.819H16.224a4.7,4.7,0,0,0,9.273,0h1.594a.909.909,0,0,0,0-1.819m-6.23,4.633a3.566,3.566,0,1,1,3.566-3.566,3.57,3.57,0,0,1-3.566,3.566" transform="translate(0 -63.882)" fill="#161615"/><path d="M27.091,44.488H12.1a4.7,4.7,0,0,0-9.224,0H.909a.909.909,0,0,0,0,1.819H2.877a4.7,4.7,0,0,0,9.224,0h14.99a.909.909,0,0,0,0-1.819m-19.6,4.475A3.566,3.566,0,1,1,11.054,45.4a3.57,3.57,0,0,1-3.565,3.566" transform="translate(0 -31.442)" fill="#161615"/></g></g></svg>